<?xml version="1.0" encoding="UTF-8" standalone="no"?>
<!DOCTYPE svg PUBLIC "-//W3C//DTD SVG 1.1//EN" "http://www.w3.org/Graphics/SVG/1.1/DTD/svg11.dtd">
<svg width="100%" height="100%" viewBox="0 0 92 97" version="1.1" xmlns="http://www.w3.org/2000/svg" xmlns:xlink="http://www.w3.org/1999/xlink" xml:space="preserve" xmlns:serif="http://www.serif.com/" style="fill-rule:evenodd;clip-rule:evenodd;stroke-linejoin:round;stroke-miterlimit:2;">
    <g transform="matrix(1,0,0,1,-99.2624,-66.6411)">
        <g transform="matrix(91.4415,0,0,-91.4415,99.2617,114.889)">
            <path d="M0.369,0.518C0.357,0.515 0.36,0.497 0.372,0.498C0.387,0.499 0.402,0.5 0.417,0.5C0.598,0.5 0.756,0.402 0.841,0.256L0.601,0.118C0.56,0.189 0.479,0.234 0.388,0.222C0.293,0.209 0.217,0.132 0.206,0.036C0.192,-0.092 0.292,-0.201 0.417,-0.201C0.496,-0.201 0.565,-0.158 0.601,-0.095L0.841,-0.233C0.756,-0.379 0.598,-0.477 0.417,-0.477C0.334,-0.477 0.255,-0.456 0.186,-0.419C0.175,-0.413 0.165,-0.429 0.176,-0.436C0.26,-0.494 0.362,-0.528 0.472,-0.528C0.77,-0.528 1.011,-0.28 1,0.02C0.989,0.295 0.765,0.518 0.49,0.527C0.484,0.528 0.478,0.528 0.472,0.528C0.437,0.528 0.403,0.524 0.369,0.518ZM0,0.011C0,-0.219 0.187,-0.406 0.417,-0.406C0.542,-0.406 0.659,-0.35 0.738,-0.256L0.62,-0.187C0.567,-0.241 0.494,-0.272 0.417,-0.272C0.261,-0.272 0.134,-0.145 0.134,0.011C0.134,0.168 0.261,0.295 0.417,0.295C0.494,0.295 0.567,0.264 0.62,0.21L0.738,0.279C0.659,0.373 0.542,0.429 0.417,0.429C0.187,0.429 0,0.242 0,0.011Z" style="fill:url(#_Linear1);fill-rule:nonzero;"/>
        </g>
    </g>
    <defs>
        <linearGradient id="_Linear1" x1="0" y1="0" x2="1" y2="0" gradientUnits="userSpaceOnUse" gradientTransform="matrix(1,0,0,-1,0,-1.62946e-06)"><stop offset="0" style="stop-color:rgb(0,173,229);stop-opacity:1"/><stop offset="1" style="stop-color:rgb(0,231,148);stop-opacity:1"/></linearGradient>
    </defs>
</svg>
